<svg width="20" height="20" viewBox="0 0 20 20" fill="none" xmlns="http://www.w3.org/2000/svg">
<g clip-path="url(#clip0_41_703)">
<mask id="mask0_41_703" style="mask-type:luminance" maskUnits="userSpaceOnUse" x="0" y="0" width="20" height="20">
<path d="M0 20H20V0H0V20Z" fill="white"/>
</mask>
<g mask="url(#mask0_41_703)">
<path d="M10 0C9.84268 6.95982e-05 9.68713 0.0332252 9.54345 0.0973129C9.39977 0.161401 9.27117 0.254988 9.16601 0.372L1.29401 8.953C1.13805 9.13672 1.03847 9.36157 1.00725 9.60053C0.976026 9.83949 1.01449 10.0824 1.11801 10.3C1.19882 10.5021 1.33707 10.6761 1.51568 10.8005C1.69429 10.9249 1.90542 10.9943 2.12301 11H6.00001V17.877C6.00054 18.1747 6.11902 18.46 6.32951 18.6705C6.54 18.881 6.82533 18.9995 7.12301 19H12.877C13.1747 18.9995 13.46 18.881 13.6705 18.6705C13.881 18.46 13.9995 18.1747 14 17.877V11H17.874C18.0919 10.9946 18.3035 10.9255 18.4825 10.801C18.6615 10.6766 18.8001 10.5024 18.881 10.3C18.9849 10.0831 19.024 9.84087 18.9937 9.6023C18.9634 9.36374 18.8649 9.13898 18.71 8.955L10.834 0.365999C10.7281 0.250371 10.5992 0.158104 10.4556 0.0950851C10.312 0.0320664 10.1568 -0.000318197 10 0Z" fill="#3A3A3A"/>
</g>
</g>
<defs>
<clipPath id="clip0_41_703">
<rect width="20" height="20" fill="white" transform="matrix(1 0 0 -1 0 20)"/>
</clipPath>
</defs>
</svg>
