<svg width="20" height="20" viewBox="0 0 20 20" fill="none" xmlns="http://www.w3.org/2000/svg">
<g clip-path="url(#clip0_41_709)">
<mask id="mask0_41_709" style="mask-type:luminance" maskUnits="userSpaceOnUse" x="0" y="0" width="20" height="20">
<path d="M20 20L0 20L0 0L20 0L20 20Z" fill="white"/>
</mask>
<g mask="url(#mask0_41_709)">
<path d="M9.99999 0C10.1573 6.86646e-05 10.3129 0.033226 10.4565 0.0973129C10.6002 0.1614 10.7288 0.254988 10.834 0.372L18.706 8.953C18.862 9.13672 18.9615 9.36157 18.9928 9.60053C19.024 9.83949 18.9855 10.0824 18.882 10.3C18.8012 10.5021 18.6629 10.6761 18.4843 10.8005C18.3057 10.9249 18.0946 10.9943 17.877 11H14V17.877C13.9995 18.1747 13.881 18.46 13.6705 18.6705C13.46 18.881 13.1747 18.9995 12.877 19H7.12299C6.82531 18.9995 6.53998 18.881 6.32949 18.6705C6.119 18.46 6.00052 18.1747 5.99999 17.877V11H2.12599C1.90806 10.9946 1.69649 10.9255 1.51749 10.801C1.3385 10.6766 1.19994 10.5024 1.11899 10.3C1.01509 10.0831 0.975962 9.84087 1.00629 9.6023C1.03662 9.36374 1.13513 9.13898 1.28999 8.955L9.16599 0.365999C9.27193 0.250372 9.40081 0.158104 9.54441 0.0950851C9.68801 0.0320663 9.84317 -0.000318527 9.99999 0ZM17.684 9.75L9.99999 1.31L2.25999 9.75H7.24999L7.24999 17.75H12.75V9.75H17.684ZM2.21499 9.8C2.22499 9.8 2.22899 9.793 2.22699 9.787L2.21499 9.8Z" fill="#3A3A3A"/>
</g>
</g>
<defs>
<clipPath id="clip0_41_709">
<rect width="20" height="20" fill="white" transform="matrix(-1 0 0 -1 20 20)"/>
</clipPath>
</defs>
</svg>
