<svg width="30" height="30" viewBox="0 0 30 30" fill="none" xmlns="http://www.w3.org/2000/svg">
<path d="M15 6.5625C20.6836 6.5625 25.3125 10.1953 25.3125 14.666C25.3125 16.7695 24.2812 18.7207 22.4121 20.168C20.4902 21.6562 17.877 22.4707 15.0586 22.4707C13.3652 22.4707 12.0703 22.2949 10.9746 21.9258C10.9395 21.9141 10.8984 21.8965 10.8574 21.8848C10.8398 21.8789 10.8223 21.873 10.8105 21.873C10.5352 21.791 10.2422 21.75 9.94922 21.75C9.62109 21.75 9.29883 21.8027 8.99414 21.9023L8.97656 21.9082C8.94141 21.9199 8.45508 22.1016 8.33203 22.1602L6.01172 23.168C6.82031 20.5957 6.82031 20.543 6.82031 20.3789C6.82031 19.9629 6.69141 19.5527 6.45117 19.1953C6.42188 19.1543 6.39258 19.1133 6.35742 19.0723C6.31641 19.0195 6.28125 18.9727 6.25195 18.9375C5.23242 17.6543 4.69336 16.1777 4.69336 14.6602C4.6875 10.1953 9.31641 6.5625 15 6.5625ZM15 5.625C8.7832 5.625 3.75 9.67383 3.75 14.666C3.75 16.4648 4.40625 18.1406 5.53125 19.5469C5.58398 19.5996 5.70117 19.7695 5.74219 19.834C5.74219 19.834 5.68359 19.7402 5.67773 19.7227C5.8125 19.916 5.88867 20.1387 5.88867 20.3789C5.88867 20.4609 4.83984 23.7773 4.83984 23.7773C4.76367 24.0352 4.96289 24.2988 5.28516 24.3633C5.33203 24.375 5.37891 24.375 5.42578 24.375C5.50195 24.375 5.57227 24.3633 5.64258 24.3457L5.73633 24.3105L8.70117 23.0215C8.75391 22.998 9.22852 22.8164 9.28711 22.793L9.32227 22.7812C9.32227 22.7812 9.31641 22.7812 9.28711 22.793C9.48633 22.7227 9.70898 22.6875 9.94336 22.6875C10.1543 22.6875 10.3594 22.7168 10.5469 22.7754C10.5527 22.7754 10.5586 22.7754 10.5586 22.7812C10.5879 22.793 10.6172 22.7988 10.6465 22.8105C12 23.2734 13.4824 23.4141 15.0469 23.4141C21.2578 23.4141 26.2383 19.6582 26.2383 14.666C26.25 9.67383 21.2109 5.625 15 5.625Z" fill="#3A3A3A"/>
</svg>
