<svg width="20" height="20" viewBox="0 0 20 20" fill="none" xmlns="http://www.w3.org/2000/svg">
<path d="M17.7524 2.24762C17.26 1.75851 16.5941 1.48401 15.9 1.48401C15.206 1.48401 14.5401 1.75851 14.0476 2.24762L2.72858 13.5667C2.62241 13.6763 2.55258 13.816 2.52858 13.9667L2.04763 17.1429C2.03184 17.2446 2.03824 17.3486 2.06639 17.4476C2.09453 17.5467 2.14376 17.6385 2.2107 17.7167C2.27764 17.795 2.3607 17.8578 2.4542 17.901C2.5477 17.9441 2.64942 17.9665 2.75239 17.9667H2.86192L6.03335 17.4905C6.18406 17.4665 6.32372 17.3967 6.43335 17.2905L17.7524 5.95238C18.2415 5.45995 18.516 4.79406 18.516 4.1C18.516 3.40594 18.2415 2.74005 17.7524 2.24762ZM5.59049 16.0952L3.60477 16.3952L3.90477 14.4095L13.2 5.11905L14.881 6.8L5.59049 16.0952ZM16.7429 4.94286L15.5572 6.12857L13.8714 4.44286L15.0572 3.25715C15.2807 3.03361 15.5839 2.90802 15.9 2.90802C16.2161 2.90802 16.5193 3.03361 16.7429 3.25715C16.9664 3.48068 17.092 3.78387 17.092 4.1C17.092 4.41613 16.9664 4.71932 16.7429 4.94286Z" fill="#3A3A3A"/>
</svg>
