<svg width="20" height="20" viewBox="0 0 20 20" fill="none" xmlns="http://www.w3.org/2000/svg">
<g clip-path="url(#clip0_312_434)">
<mask id="mask0_312_434" style="mask-type:luminance" maskUnits="userSpaceOnUse" x="0" y="0" width="20" height="20">
<path d="M0 0H20V20H0V0Z" fill="white"/>
</mask>
<g mask="url(#mask0_312_434)">
<path d="M10.625 9.375H14V10.625H10.625H9.375H6V9.375H9.375H10.625ZM20 10C20 11.9778 19.4135 13.9112 18.3147 15.5557C17.2159 17.2002 15.6541 18.4819 13.8268 19.2388C11.9996 19.9957 9.98891 20.1937 8.0491 19.8079C6.10929 19.422 4.32746 18.4696 2.92894 17.0711C1.53041 15.6725 0.578004 13.8907 0.192152 11.9509C-0.193701 10.0111 0.00433284 8.00043 0.761209 6.17317C1.51809 4.34591 2.79981 2.78412 4.4443 1.6853C6.08879 0.58649 8.02219 0 10 0C12.6513 0.0029116 15.1931 1.05742 17.0679 2.93215C18.9426 4.80688 19.9971 7.34873 20 10ZM18.75 10C18.75 8.26941 18.2368 6.57769 17.2754 5.13876C16.3139 3.69983 14.9473 2.57832 13.3485 1.91605C11.7496 1.25379 9.9903 1.08051 8.29296 1.41813C6.59563 1.75575 5.03653 2.58911 3.81282 3.81282C2.58911 5.03653 1.75575 6.59563 1.41813 8.29296C1.08051 9.99029 1.25379 11.7496 1.91606 13.3485C2.57833 14.9473 3.69983 16.3139 5.13876 17.2754C6.5777 18.2368 8.26942 18.75 10 18.75C12.3198 18.7474 14.5439 17.8246 16.1843 16.1843C17.8246 14.5439 18.7474 12.3198 18.75 10Z" fill="#3A3A3A"/>
</g>
</g>
<defs>
<clipPath id="clip0_312_434">
<rect width="20" height="20" fill="white"/>
</clipPath>
</defs>
</svg>
