<svg width="24" height="24" viewBox="0 0 24 24" fill="none" xmlns="http://www.w3.org/2000/svg">
<path d="M11.9994 1.5C7.52212 1.5 3.69998 4.30331 2.19028 8.25H3.81398C4.25442 7.28981 4.86665 6.40547 5.63592 5.63616C7.33575 3.93623 9.59569 3 11.9994 3C14.4034 3 16.6636 3.93623 18.3637 5.6362C20.0637 7.33617 21 9.5962 21 12C21 14.404 20.0637 16.6641 18.3637 18.364C16.6637 20.0639 14.4035 21 11.9994 21C9.59559 21 7.33565 20.0639 5.63587 18.364C4.86656 17.5947 4.25433 16.7103 3.81379 15.75H2.19019C3.69984 19.6969 7.52203 22.5 11.9994 22.5C17.7985 22.5 22.5 17.7991 22.5 12C22.5 6.20147 17.7985 1.5 11.9994 1.5Z" fill="black"/>
<path d="M9.6967 15.182L10.7573 16.2426L15 12L10.7573 7.75732L9.69666 8.81801L12.1287 11.25H1.5V12.75H12.1287L9.6967 15.182Z" fill="black"/>
</svg>
